0.06m3min_grf.mot
version=1
nRows=17
nColumns 19
inDegrees=yes
endheader
time	1_ground_force_vx	1_ground_force_vy	1_ground_force_vz	1_ground_force_px	1_ground_force_py	1_ground_force_pz	1_ground_torque_x	1_ground_torque_y	1_ground_torque_z	2_ground_force_vx	2_ground_force_vy	2_ground_force_vz	2_ground_force_px	2_ground_force_py	2_ground_force_pz	2_ground_torque_x	2_ground_torque_y	2_ground_torque_z
            1.253500	           24.304641	         1045.013940	          -81.791124	           -0.232835	            0.006247	           -0.410818	           -0.062622	           -2.692532	            0.210739	            6.205054	         1065.496452	           61.613560	           -0.241451	            0.005537	           -0.676644	           -0.004836	           -0.830417	           -0.048020
            1.254000	           25.221483	         1045.735106	          -81.744455	           -0.232797	            0.006247	           -0.410956	           -0.058813	           -2.438518	            0.190617	            5.871706	         1066.969063	           61.431244	           -0.241437	            0.005537	           -0.676579	           -0.004744	           -0.862078	           -0.049635
            1.254500	           25.817551	         1046.996338	          -81.602952	           -0.232699	            0.006247	           -0.410884	           -0.053986	           -2.189339	            0.170637	            5.449208	         1067.153127	           61.009727	           -0.241515	            0.005536	           -0.676358	           -0.003498	           -0.685085	           -0.039167
            1.255000	           26.734363	         1046.636364	          -81.652625	           -0.232660	            0.006248	           -0.411043	           -0.049650	           -1.943760	            0.151641	            5.303985	         1068.441832	           60.967458	           -0.241441	            0.005536	           -0.676441	           -0.002654	           -0.534683	           -0.030510
            1.255500	           26.735043	         1047.896498	          -81.280368	           -0.232682	            0.006247	           -0.410984	           -0.050757	           -1.989438	            0.154311	            4.833328	         1068.993963	           60.594204	           -0.241437	            0.005536	           -0.676311	           -0.002287	           -0.505789	           -0.028670
            1.256000	           26.691332	         1048.073172	          -80.408229	           -0.232748	            0.006247	           -0.411015	           -0.054669	           -2.146646	            0.164691	            4.691181	         1069.364035	           59.985513	           -0.241323	            0.005536	           -0.676295	           -0.002733	           -0.622992	           -0.034946
            1.256500	           26.556387	         1048.248797	          -79.352426	           -0.232798	            0.006248	           -0.411092	           -0.057563	           -2.272156	            0.172002	            5.112145	         1069.549804	           59.939062	           -0.241272	            0.005536	           -0.676255	           -0.004365	           -0.913241	           -0.051179
            1.257000	           26.924057	         1048.787865	          -78.938318	           -0.232596	            0.006248	           -0.411119	           -0.056079	           -2.184484	            0.164418	            5.249851	         1070.288381	           59.519278	           -0.241275	            0.005536	           -0.676277	           -0.005357	           -1.092190	           -0.060737
            1.257500	           27.567488	         1047.343505	          -78.395823	           -0.232616	            0.006249	           -0.411358	           -0.049033	           -1.862847	            0.139438	            5.155302	         1070.473628	           59.097621	           -0.241224	            0.005537	           -0.676321	           -0.005018	           -1.042033	           -0.057528
            1.258000	           28.255689	         1046.802085	          -78.216425	           -0.232568	            0.006248	           -0.411229	           -0.043341	           -1.605672	            0.119975	            4.781811	         1070.104283	           59.049539	           -0.241251	            0.005536	           -0.676195	           -0.004023	           -0.900193	           -0.049674
            1.258500	           28.439954	         1047.521291	          -77.801074	           -0.232572	            0.006248	           -0.411210	           -0.041555	           -1.530574	            0.113678	            4.598256	         1068.999812	           58.717179	           -0.241228	            0.005535	           -0.676014	           -0.003652	           -0.849073	           -0.046637
            1.259000	           28.760610	         1046.981177	          -77.941761	           -0.232362	            0.006249	           -0.411244	           -0.042137	           -1.533937	            0.114193	            4.223415	         1068.998793	           58.623483	           -0.241123	            0.005536	           -0.676137	           -0.003241	           -0.820252	           -0.044982
            1.259500	           28.763375	         1046.796284	          -76.841992	           -0.232456	            0.006249	           -0.411335	           -0.044121	           -1.605701	            0.117869	            4.085942	         1068.079652	           58.057120	           -0.241071	            0.005536	           -0.676090	           -0.003748	           -0.979664	           -0.053251
            1.260000	           28.675416	         1045.708638	          -75.424864	           -0.232427	            0.006249	           -0.411316	           -0.046493	           -1.695466	            0.122291	            4.176092	         1069.002474	           57.544156	           -0.241072	            0.005537	           -0.676262	           -0.004637	           -1.187008	           -0.063896
            1.260500	           28.495138	         1043.720993	          -74.332370	           -0.232442	            0.006250	           -0.411618	           -0.043238	           -1.583709	            0.112790	            4.231480	         1066.609467	           57.300954	           -0.241071	            0.005536	           -0.676139	           -0.004959	           -1.249978	           -0.067152
            1.261000	           28.404920	         1041.916291	          -73.881321	           -0.232321	            0.006251	           -0.411757	           -0.037655	           -1.381204	            0.097940	            4.559888	         1066.428246	           56.830876	           -0.240929	            0.005537	           -0.676253	           -0.005633	           -1.317329	           -0.070202
            1.261500	           28.637097	         1041.911224	          -72.689628	           -0.232293	            0.006250	           -0.411594	           -0.031536	           -1.147366	            0.080047	            4.610602	         1065.324453	           56.545345	           -0.240981	            0.005537	           -0.676159	           -0.005002	           -1.155677	           -0.061341
